<?xml version="1.0" standalone="no"?>
<!DOCTYPE svg PUBLIC "-//W3C//DTD SVG 20010904//EN"
 "http://www.w3.org/TR/2001/REC-SVG-20010904/DTD/svg10.dtd">
<svg version="1.0" xmlns="http://www.w3.org/2000/svg"
 width="512.000000pt" height="512.000000pt" viewBox="0 0 512.000000 512.000000"
 preserveAspectRatio="xMidYMid meet">

<g transform="translate(0.000000,512.000000) scale(0.100000,-0.100000)"
fill="#000000" stroke="none">
<path d="M595 5103 c-290 -62 -519 -294 -579 -585 -14 -69 -16 -283 -16 -1958
0 -2057 -3 -1953 57 -2095 75 -178 230 -333 409 -408 141 -60 38 -57 2094 -57
2033 0 1947 -2 2084 51 172 68 333 223 412 398 63 140 58 -25 62 2076 2 1718
1 1918 -13 1989 -60 297 -291 529 -587 590 -69 14 -276 16 -1965 15 -1637 -1
-1897 -3 -1958 -16z m3235 -813 c26 -13 47 -34 60 -60 19 -37 20 -58 20 -370
0 -312 -1 -333 -20 -370 -23 -45 -80 -80 -131 -80 -46 0 -108 39 -130 82 -17
33 -19 61 -19 278 l0 240 -975 0 -975 0 509 -679 c280 -373 516 -692 525 -709
9 -17 16 -45 16 -62 0 -17 -7 -45 -16 -62 -9 -17 -245 -336 -525 -709 l-509
-679 975 0 975 0 0 240 c0 217 2 245 19 278 22 43 84 82 130 82 51 0 108 -35
131 -80 19 -37 20 -58 20 -370 0 -312 -1 -333 -20 -370 -13 -26 -34 -47 -60
-60 -39 -20 -56 -20 -1270 -20 -1214 0 -1231 0 -1270 20 -69 35 -99 125 -64
192 9 17 270 370 581 784 l565 754 -565 754 c-311 414 -572 767 -581 784 -34
66 -5 156 62 191 36 20 62 20 1270 21 1216 0 1233 0 1272 -20z"/>
</g>
</svg>
